<svg width="28" height="28" viewBox="0 0 28 28" fill="none" xmlns="http://www.w3.org/2000/svg">
<g clip-path="url(#clip0_2371_3623)">
<path fill-rule="evenodd" clip-rule="evenodd" d="M27.3995 2.15785C26.3677 0.192253 22.9741 0.809653 20.0411 1.59505C7.29135 6.29345 2.78055 15.8415 1.19575 21.5297C1.11735 21.6725 1.06975 21.8363 1.06555 22.0113C0.43835 24.4249 0.35295 26.0335 0.35155 26.0867C0.32775 26.6649 0.77715 27.1535 1.35535 27.1773C1.37075 27.1787 1.38615 27.1787 1.40155 27.1787C1.96015 27.1787 2.42495 26.7377 2.45015 26.1735C2.45715 26.0027 2.52155 24.8281 2.91775 23.0725C6.42895 22.9241 9.96395 21.6165 13.4359 19.1749C13.7075 18.9845 13.8727 18.6765 13.8825 18.3461C13.8923 18.0143 13.7439 17.6979 13.4849 17.4935L11.8833 16.2251L17.1389 15.7099C17.3531 15.6889 17.5547 15.6035 17.7185 15.4635C17.8319 15.3683 20.5073 13.0779 23.0525 10.4081C26.9235 6.34805 28.2633 3.80425 27.3995 2.15785Z" fill="#335CFF"/>
<path fill-rule="evenodd" clip-rule="evenodd" d="M21.1785 25.0801H12.2045C11.6249 25.0801 11.1545 25.5505 11.1545 26.1301C11.1545 26.7097 11.6249 27.1801 12.2045 27.1801H21.1785C21.7581 27.1801 22.2285 26.7097 22.2285 26.1301C22.2285 25.5505 21.7581 25.0801 21.1785 25.0801Z" fill="#335CFF"/>
</g>
<defs>
<clipPath id="clip0_2371_3623">
<rect width="28" height="28" fill="white"/>
</clipPath>
</defs>
</svg>
