<svg width="20" height="20" viewBox="0 0 20 20" fill="none" xmlns="http://www.w3.org/2000/svg">
<path fill-rule="evenodd" clip-rule="evenodd" d="M3.74707 6.6875C4.09225 6.6875 4.37207 6.96733 4.37207 7.3125V14.5417C4.37207 15.6065 5.2355 16.4699 6.30031 16.4699H13.6998C14.7646 16.4699 15.628 15.6065 15.628 14.5417V7.3125C15.628 6.96733 15.9078 6.6875 16.253 6.6875C16.5982 6.6875 16.878 6.96733 16.878 7.3125V14.5417C16.878 16.2968 15.4549 17.7199 13.6998 17.7199H6.30031C4.54514 17.7199 3.12207 16.2968 3.12207 14.5417V7.3125C3.12207 6.96733 3.4019 6.6875 3.74707 6.6875Z" fill="#E0E4EA"/>
<path fill-rule="evenodd" clip-rule="evenodd" d="M8.38408 2.84187C9.33125 2.09308 10.6688 2.09308 11.616 2.84187L17.8879 7.80672C18.1586 8.02096 18.2043 8.414 17.9901 8.68467C17.7758 8.95533 17.3827 9.00108 17.1121 8.78683L10.8408 3.82247C10.8407 3.82238 10.8409 3.82255 10.8408 3.82247C10.3481 3.43316 9.65208 3.43296 9.15933 3.82238C9.15933 3.8224 9.15942 3.82234 9.15933 3.82238L2.88794 8.78683C2.6173 9.00108 2.22422 8.95533 2.00998 8.68467C1.79574 8.414 1.84146 8.02096 2.11211 7.80672L8.38408 2.84187Z" fill="#E0E4EA"/>
<path fill-rule="evenodd" clip-rule="evenodd" d="M14.7236 3.49414C15.0688 3.49414 15.3486 3.77397 15.3486 4.11914V6.08041C15.3486 6.42558 15.0688 6.70541 14.7236 6.70541C14.3785 6.70541 14.0986 6.42558 14.0986 6.08041V4.11914C14.0986 3.77397 14.3785 3.49414 14.7236 3.49414Z" fill="#E0E4EA"/>
<path fill-rule="evenodd" clip-rule="evenodd" d="M9.97833 11.4063H10.0242C10.3382 11.4063 10.6091 11.4062 10.8325 11.4237C11.0682 11.442 11.303 11.4825 11.5308 11.5923C11.9128 11.7766 12.221 12.0848 12.4053 12.4668C12.5151 12.6946 12.5556 12.9294 12.5739 13.1651C12.5913 13.3885 12.5913 13.6594 12.5913 13.9734V17.0952C12.5913 17.4403 12.3115 17.7202 11.9663 17.7202C11.6212 17.7202 11.3413 17.4403 11.3413 17.0952V13.9963C11.3413 13.6529 11.3409 13.4313 11.3278 13.2622C11.3151 13.1 11.2936 13.0393 11.2793 13.0098C11.2179 12.8824 11.1152 12.7797 10.9878 12.7182C10.9583 12.704 10.8976 12.6825 10.7354 12.6698C10.5663 12.6567 10.3447 12.6562 10.0013 12.6562C9.65783 12.6562 9.43608 12.6567 9.26708 12.6698C9.10483 12.6825 9.04425 12.704 9.01467 12.7182C8.88733 12.7797 8.78458 12.8824 8.72317 13.0098C8.70892 13.0393 8.68742 13.1 8.67475 13.2622C8.66158 13.4313 8.66117 13.6529 8.66117 13.9963V17.0952C8.66117 17.4403 8.38133 17.7202 8.03613 17.7202C7.69095 17.7202 7.41113 17.4403 7.41113 17.0952V13.9734C7.41112 13.6594 7.41111 13.3885 7.42852 13.1651C7.4469 12.9294 7.48742 12.6946 7.59723 12.4668C7.78144 12.0848 8.08972 11.7766 8.47175 11.5923C8.6995 11.4825 8.93425 11.442 9.16992 11.4237C9.39342 11.4062 9.66433 11.4063 9.97833 11.4063Z" fill="#E0E4EA"/>
</svg>
