<svg width="58" height="22" viewBox="0 0 58 22" fill="none" xmlns="http://www.w3.org/2000/svg">
<path d="M6.336 20.615C5.76867 20.615 5.36233 20.4923 5.117 20.247C4.87167 19.9863 4.749 19.5033 4.749 18.798C4.749 18.3227 4.795 17.7477 4.887 17.073C4.979 16.3983 5.14 15.3787 5.37 14.014C5.40067 13.83 5.52333 13.0863 5.738 11.783C5.95267 10.4643 6.14433 9.08433 6.313 7.643C6.46633 6.41633 6.543 5.49633 6.543 4.883C6.543 4.193 6.29 3.848 5.784 3.848C5.40067 3.848 4.91767 4.055 4.335 4.469C3.76767 4.86767 3.15433 5.51167 2.495 6.401C2.28033 6.69233 2.04267 6.838 1.782 6.838C1.56733 6.838 1.37567 6.73833 1.207 6.539C1.05367 6.32433 0.977 6.08667 0.977 5.826C0.977 5.56533 1.023 5.32 1.115 5.09C1.207 4.84467 1.37567 4.55333 1.621 4.216C2.37233 3.18867 3.208 2.399 4.128 1.847C5.048 1.27967 6.014 0.995999 7.026 0.995999C7.86933 0.995999 8.498 1.25667 8.912 1.778C9.34133 2.29933 9.556 3.05833 9.556 4.055C9.556 4.94433 9.43333 6.23233 9.188 7.919C9.95467 5.64967 10.9283 3.93233 12.109 2.767C13.2897 1.58633 14.6773 0.995999 16.272 0.995999C17.5293 0.995999 18.4723 1.35633 19.101 2.077C19.745 2.78233 20.067 3.733 20.067 4.929C20.067 5.60367 19.9673 6.424 19.768 7.39L18.365 13.968C18.2117 14.7347 18.135 15.394 18.135 15.946C18.135 16.59 18.2807 17.073 18.572 17.395C18.8787 17.717 19.3003 17.878 19.837 17.878C20.343 17.878 20.8337 17.7093 21.309 17.372C21.7997 17.0347 22.3747 16.475 23.034 15.693C23.218 15.4783 23.425 15.371 23.655 15.371C23.8543 15.371 24.0077 15.463 24.115 15.647C24.2377 15.831 24.299 16.084 24.299 16.406C24.299 17.004 24.1533 17.4793 23.862 17.832C23.0647 18.798 22.275 19.5033 21.493 19.948C20.711 20.3927 19.8907 20.615 19.032 20.615C17.7287 20.615 16.709 20.2317 15.973 19.465C15.237 18.683 14.869 17.6403 14.869 16.337C14.869 15.831 14.9073 15.279 14.984 14.681C15.076 14.083 15.2217 13.324 15.421 12.404L16.341 8.195C16.3717 8.057 16.4253 7.81167 16.502 7.459C16.5787 7.10633 16.64 6.77667 16.686 6.47C16.732 6.148 16.755 5.83367 16.755 5.527C16.755 5.03633 16.617 4.64533 16.341 4.354C16.065 4.06267 15.674 3.917 15.168 3.917C14.248 3.917 13.328 4.40767 12.408 5.389C11.488 6.37033 10.637 7.95733 9.855 10.15C9.073 12.3273 8.45967 15.118 8.015 18.522C7.90767 19.304 7.74667 19.8483 7.532 20.155C7.33267 20.4617 6.934 20.615 6.336 20.615ZM33.7012 13.439C33.9005 13.439 34.0538 13.5387 34.1611 13.738C34.2685 13.9373 34.3222 14.1903 34.3222 14.497C34.3222 15.233 34.0998 15.67 33.6552 15.808C32.7352 16.13 31.7231 16.314 30.6191 16.36C30.3278 17.648 29.7528 18.683 28.8941 19.465C28.0355 20.2317 27.0618 20.615 25.9731 20.615C25.0531 20.615 24.2635 20.3927 23.6041 19.948C22.9601 19.5033 22.4695 18.913 22.1321 18.177C21.7948 17.441 21.6261 16.6437 21.6261 15.785C21.6261 14.6197 21.8485 13.5847 22.2931 12.68C22.7378 11.76 23.3511 11.047 24.1331 10.541C24.9151 10.0197 25.7815 9.759 26.7321 9.759C27.8975 9.759 28.8328 10.1653 29.5381 10.978C30.2588 11.7753 30.6805 12.7643 30.8031 13.945C31.5238 13.899 32.3825 13.7457 33.3792 13.485C33.5018 13.4543 33.6092 13.439 33.7012 13.439ZM26.1571 18.177C26.6478 18.177 27.0695 17.9777 27.4221 17.579C27.7901 17.1803 28.0355 16.6053 28.1581 15.854C27.6828 15.532 27.3148 15.1103 27.0541 14.589C26.8088 14.0677 26.6861 13.5157 26.6861 12.933C26.6861 12.6877 26.7091 12.4423 26.7551 12.197H26.6401C26.0268 12.197 25.5131 12.496 25.0991 13.094C24.7005 13.6767 24.5011 14.5047 24.5011 15.578C24.5011 16.4213 24.6621 17.0653 24.9841 17.51C25.3215 17.9547 25.7125 18.177 26.1571 18.177ZM42.7301 15.371C42.9294 15.371 43.0828 15.463 43.1901 15.647C43.3128 15.831 43.3741 16.084 43.3741 16.406C43.3741 17.0193 43.2284 17.4947 42.9371 17.832C42.2778 18.6447 41.5571 19.3117 40.7751 19.833C39.9931 20.3543 39.0961 20.615 38.0841 20.615C34.9561 20.615 33.3921 18.4147 33.3921 14.014C33.3921 13.3393 33.4151 12.657 33.4611 11.967H32.5641C32.1041 11.967 31.7898 11.8827 31.6211 11.714C31.4678 11.5453 31.3911 11.277 31.3911 10.909C31.3911 10.0503 31.7361 9.621 32.4261 9.621H33.7371C33.9978 7.93433 34.3964 6.39333 34.9331 4.998C35.4698 3.60267 36.1138 2.491 36.8651 1.663C37.6318 0.834999 38.4521 0.420999 39.3261 0.420999C39.9701 0.420999 40.4761 0.704666 40.8441 1.272C41.2121 1.83933 41.3961 2.55233 41.3961 3.411C41.3961 5.78767 40.3994 7.85767 38.4061 9.621H40.9821C41.2274 9.621 41.4038 9.67467 41.5111 9.782C41.6184 9.88933 41.6721 10.0887 41.6721 10.38C41.6721 11.438 40.8058 11.967 39.0731 11.967H36.2671C36.2364 12.7337 36.2211 13.3317 36.2211 13.761C36.2211 15.3557 36.4051 16.475 36.7731 17.119C37.1564 17.763 37.7544 18.085 38.5671 18.085C39.2264 18.085 39.8091 17.8857 40.3151 17.487C40.8211 17.0883 41.4191 16.4903 42.1091 15.693C42.2931 15.4783 42.5001 15.371 42.7301 15.371ZM38.7051 2.629C38.4751 2.629 38.2144 2.92033 37.9231 3.503C37.6471 4.07033 37.3788 4.86767 37.1181 5.895C36.8728 6.907 36.6658 8.034 36.4971 9.276C37.4018 8.494 38.0764 7.62 38.5211 6.654C38.9811 5.67267 39.2111 4.78333 39.2111 3.986C39.2111 3.08133 39.0424 2.629 38.7051 2.629ZM51.2994 15.371C51.4987 15.371 51.652 15.463 51.7594 15.647C51.882 15.831 51.9434 16.084 51.9434 16.406C51.9434 17.0193 51.7977 17.4947 51.5064 17.832C50.939 18.522 50.134 19.1583 49.0914 19.741C48.064 20.3237 46.96 20.615 45.7794 20.615C44.1694 20.615 42.9197 20.178 42.0304 19.304C41.141 18.43 40.6964 17.234 40.6964 15.716C40.6964 14.658 40.9187 13.6767 41.3634 12.772C41.808 11.852 42.4214 11.1237 43.2034 10.587C44.0007 10.0503 44.8977 9.782 45.8944 9.782C46.7837 9.782 47.4967 10.0503 48.0334 10.587C48.57 11.1083 48.8384 11.8213 48.8384 12.726C48.8384 13.784 48.455 14.6963 47.6884 15.463C46.937 16.2143 45.6567 16.8123 43.8474 17.257C44.2307 17.9623 44.959 18.315 46.0324 18.315C46.7224 18.315 47.5044 18.0773 48.3784 17.602C49.2677 17.1113 50.0344 16.475 50.6784 15.693C50.8624 15.4783 51.0694 15.371 51.2994 15.371ZM45.5034 12.036C44.936 12.036 44.453 12.3657 44.0544 13.025C43.671 13.6843 43.4794 14.4817 43.4794 15.417V15.463C44.384 15.2483 45.097 14.9263 45.6184 14.497C46.1397 14.0677 46.4004 13.5693 46.4004 13.002C46.4004 12.7107 46.316 12.4807 46.1474 12.312C45.994 12.128 45.7794 12.036 45.5034 12.036ZM53.8887 21.121C53.0913 21.121 52.478 20.937 52.0487 20.569C51.6347 20.201 51.4277 19.787 51.4277 19.327C51.4277 18.9283 51.5733 18.5833 51.8647 18.292C52.156 18.0007 52.5853 17.855 53.1527 17.855C53.352 17.855 53.582 17.878 53.8427 17.924C54.1187 17.9547 54.3257 17.9777 54.4637 17.993C54.4483 17.5943 54.3563 17.2187 54.1877 16.866C54.0343 16.5133 53.835 16.176 53.5897 15.854C53.3443 15.5167 53.1143 15.2253 52.8997 14.98C52.4243 15.8847 51.949 16.636 51.4737 17.234C51.0137 17.832 50.5077 18.3993 49.9557 18.936C49.6797 19.212 49.3883 19.35 49.0817 19.35C48.8363 19.35 48.637 19.2657 48.4837 19.097C48.3303 18.913 48.2537 18.6907 48.2537 18.43C48.2537 18.1233 48.361 17.8397 48.5757 17.579L48.8747 17.211C49.718 16.1683 50.3543 15.3097 50.7837 14.635C51.0597 14.1903 51.3357 13.6613 51.6117 13.048C51.903 12.4347 52.2787 11.599 52.7387 10.541C53.03 9.86633 53.6357 9.529 54.5557 9.529C54.985 9.529 55.284 9.56733 55.4527 9.644C55.6213 9.72067 55.7057 9.84333 55.7057 10.012C55.7057 10.104 55.675 10.2497 55.6137 10.449C55.5523 10.6483 55.468 10.8477 55.3607 11.047C55.0847 11.599 54.9467 12.0667 54.9467 12.45C54.9467 12.68 55.0233 12.933 55.1767 13.209C55.3453 13.485 55.5983 13.83 55.9357 14.244C56.4263 14.888 56.7943 15.44 57.0397 15.9C57.3003 16.3447 57.4307 16.8353 57.4307 17.372C57.4307 18.016 57.2773 18.6293 56.9707 19.212C56.6793 19.7793 56.2653 20.2393 55.7287 20.592C55.192 20.9447 54.5787 21.121 53.8887 21.121Z" fill="white"/>
</svg>
