<svg width="20" height="21" viewBox="0 0 20 21" fill="none" xmlns="http://www.w3.org/2000/svg">
<path fill-rule="evenodd" clip-rule="evenodd" d="M9.37374 3.41699C6.01928 3.41699 3.29996 6.13632 3.29996 9.49079C3.29996 12.8452 6.01928 15.5645 9.37374 15.5645C12.7282 15.5645 15.4475 12.8452 15.4475 9.49079C15.4475 6.13632 12.7282 3.41699 9.37374 3.41699ZM2.04996 9.49079C2.04996 5.44597 5.32892 2.16699 9.37374 2.16699C13.4186 2.16699 16.6975 5.44597 16.6975 9.49079C16.6975 13.5356 13.4186 16.8145 9.37374 16.8145C5.32892 16.8145 2.04996 13.5356 2.04996 9.49079Z" fill="#99A0AE"/>
<path fill-rule="evenodd" clip-rule="evenodd" d="M13.9466 13.54L18.6262 18.2075L17.7434 19.0925L13.0638 14.425L13.9466 13.54Z" fill="#99A0AE"/>
</svg>
